<?xml version="1.0" encoding="UTF-8"?>
<!-- Created with Inkscape (http://www.inkscape.org/) -->
<svg width="26.14mm" height="26.14mm" version="1.1" viewBox="0 0 26.14 26.14" xmlns="http://www.w3.org/2000/svg">
 <path d="m0 0v26.14h26.14v-26.14h-26.14zm1.1002 1.1002h23.94l-5.17e-4 23.94h-23.94v-23.94zm1.0997 1.0997v3.3631c0.38052 0.23604 0.73812 0.50937 1.0589 0.83509v-3.1125h2.3828v9.1447c0.23888 0.86402 0.60233 1.6845 1.0583 2.4479v-11.653c-0.32858-0.35143-0.65975-0.70162-1.0154-1.0253h-3.4845zm16.144 5.168e-4v0.99167h1.1689 2.9497l-4.1181 2.7652v0.99322h5.5955v-0.99322h-1.1684v5.168e-4h-2.9497l4.1176-2.7657 5.17e-4 -0.99167h-5.596zm-16.144 5.4353v11.742c0.11869 0.1902 0.24502 0.37745 0.39016 0.55656 0.20895 0.29909 0.43223 0.58706 0.66869 0.86455v-11.962c-0.32124-0.42878-0.6788-0.82706-1.0589-1.2015zm16.101 0.30644v4.7511h5.596v-4.7511h-1.1689c0.0069 1.2563 2.18e-4 2.5049 0 3.7584h-1.1643v-3.7584h-0.92552v3.7584h-1.1684v-1.2728h-5.17e-4v-2.4856h-1.1684zm-9.434 1.6288v0.61443c0.35091 0.08742 0.69102 0.2126 0.9679 0.47181 0.45941 0.37894 0.69295 0.96549 0.76895 1.5518 0.05382 0.37705 0.17943 0.74091 0.36794 1.0666v-1.542h0.64906c-0.10775-0.52695-0.25187-1.054-0.63252-1.4444-0.23412-0.2564-0.4482-0.49577-0.72709-0.71675-0.46467-5.03e-4 -0.92945-0.0015503-1.3942-0.0015503zm2.7518 0.0031006c0.27034 0.34536 0.4102 0.78611 0.47594 1.2216 0.04854 0.32811 0.15035 0.64757 0.30334 0.93793h1.3637c-0.03077-0.03004-0.06101-0.061232-0.0894-0.095602-0.46793-0.4095-0.50145-1.0681-0.62942-1.6397-0.02553-0.14688-0.067337-0.28745-0.12196-0.4222-0.4342-6.56e-4 -0.86813-0.0012671-1.3022-0.0020671zm5.5568 0.0025838c-0.59375 0.0013-1.1867 0.0015503-1.7797 0.0015503 0.18978 0.22065 0.40959 0.41541 0.65061 0.57413 0.32908 0.25656 0.74023 0.3242 1.1291 0.42685v-1.0025zm-3.73 5.168e-4c0.0775 0.35791 0.16796 0.71056 0.38551 1.0129 0.45064 0.66573 1.1331 1.1899 1.927 1.3157 0.27871 0.03803 0.5151 0.21179 0.78135 0.2868 0.23518 0.09277 0.45135 0.23222 0.63614 0.40618v-1.4356c-0.19745-0.10192-0.40621-0.18176-0.62528-0.23099-0.57464-0.12591-1.2322-0.207-1.6268-0.71055-0.17658-0.18556-0.2805-0.4077-0.35502-0.64337-0.37434-2.67e-4 -0.74875-5.975e-4 -1.1229-0.0010335zm-4.5785 1.2981v1.5183c0.01368 0.0211 0.027994 0.041632 0.040824 0.063562 0.45613 0.6745 0.32322 1.5852 0.80202 2.2515 0.45167 0.66487 1.1329 1.191 1.9275 1.3157 0.27851 0.03772 0.51463 0.21115 0.78083 0.28577 0.11717 0.04638 0.2275 0.10776 0.33383 0.1757 0.51966-9.2e-5 1.0392-4.95e-4 1.5591-5.16e-4 -0.42856-0.71049-1.1071-1.2698-1.912-1.4428-0.57657-0.11726-1.2312-0.21735-1.6164-0.7276-0.50875-0.56133-0.40286-1.3837-0.71365-2.0392-0.25053-0.57588-0.69619-1.0489-1.202-1.4004zm6.2038 1.3725v1.233c0.02759 9e-3 0.054342 0.020328 0.082682 0.027388 0.46793 0.16106 0.80596 0.56536 1.1028 0.9493 0.29851 0.58001 0.23437 1.2861 0.5488 1.864 0.10564 0.18926 0.23072 0.36785 0.37052 0.53434v-3.0474c-0.13312-0.24633-0.29827-0.47338-0.50643-0.66404-0.3748-0.42149-0.85452-0.75785-1.4108-0.85783-0.061-0.01431-0.125-0.025908-0.18758-0.038758zm-1.5715 0.64957c0.27633 0.17103 0.58074 0.29213 0.9033 0.34416 0.10422 0.01555 0.2018 0.052511 0.29817 0.092501-3.9e-5 -0.1455 0-0.2911 0-0.43667h-1.2015zm-0.9033 0.48369v0.94723h-0.57619c0.25994 0.15629 0.54339 0.26972 0.84439 0.31988 0.30674 0.04172 0.5724 0.2118 0.86661 0.30179 0.39109 0.16816 0.73598 0.46445 0.971 0.82889-6.8e-5 -0.55044-2.31e-4 -1.1009-5.17e-4 -1.6511-0.3303-0.23998-0.71858-0.39255-1.1203-0.45992-0.32899-0.07225-0.69046-0.11644-0.98495-0.2868zm8.0424 0.065629v5.17e-4 0.99219 1.5425h1.1679v-1.5425h0.92242v2.7662h-3.2587v-1.2733h-5.17e-4v-2.4851h-1.1684v4.7506h5.596v-4.7506h-2.0908v-5.17e-4h-1.1679zm-11.771 0.44442v0.43718h-5.168e-4v2.157h5.168e-4v0.001033c0.85734-1.74e-4 1.7144-3.22e-4 2.5714-5.17e-4 -0.08828-0.03015-0.1783-0.05614-0.2713-0.07338-0.5623-0.13752-1.213-0.16939-1.6154-0.65629-0.45918-0.40162-0.50283-1.0453-0.6227-1.6082-0.01493-0.08773-0.036712-0.17298-0.062012-0.25683zm6.2038 0.57102v2.5223c0.08019 0.37541 0.18176 0.74244 0.41806 1.0547 0.40314 0.58233 0.99734 1.0549 1.6867 1.2077v-1.1679c-0.09383-0.04194-0.18484-0.091333-0.26872-0.15813-0.32308-0.3041-0.69926-0.62246-0.75913-1.0981-0.09767-0.3848-0.089555-0.79077-0.26097-1.156-0.15994-0.46871-0.46278-0.86118-0.8108-1.1994-0.0016-0.0018-0.003468-0.003268-0.005168-0.005168zm-9.4289 0.78445v5.1656h7.7432c-0.60994-0.23931-1.2435-0.42027-1.897-0.52865-0.73638-0.14351-1.5016-0.30649-2.2278-0.55759h-2.5601v-1.7565c-0.53997-0.69967-0.84077-1.4941-1.0583-2.3229zm9.4289 3.4851v0.59428h-3.0189c0.58035 0.20828 1.178 0.36629 1.7901 0.45424 0.56766 0.20519 1.1418 0.40621 1.7053 0.632h0.59531v0.2558c0.33749 0.15127 0.67038 0.31208 0.99064 0.49764 0.02325 0.0149 0.044587 0.032879 0.067696 0.048059v-1.8877h-1.5384c-0.24176-0.14307-0.44118-0.35158-0.5917-0.59428zm3.2308 0.45785v4.7506h5.596v-4.7506h-5.596zm1.1684 0.99219h3.2592v2.7657h-3.2592v-2.7657zm-3.3274 1.8536v0.81907h-10.565c0.67952 0.45008 1.4107 0.81158 2.173 1.0857 3.1484-2.24e-4 6.2974-0.001551 9.4501-0.001551v-0.92759c-0.33316-0.3474-0.68636-0.67401-1.0583-0.97565zm-13.942 0.034107v1.8691c0.90035 9.23e-4 1.8 1.69e-4 2.7001 5.17e-4 -0.89898-0.2879-1.7361-0.71683-2.358-1.4903-0.1253-0.12104-0.23698-0.24863-0.3421-0.3793z" stroke-width="14.642" style="paint-order:stroke fill markers"/>
</svg>
